# xmcd
#
# Track frame offsets: 
#        150
#        17363
#        38787
#        56430
#        78903
#        94521
#        98105
#        123684
#        144681
#        160368
#        174429
#        188855
#
# Disc length: 2838 seconds
#
# Revision: 2
# Processed by: cddbd v1.5.2PL0 Copyright (c) Steve Scherf et al.
# Submitted via: ExactAudioCopy v1.1
#
DISCID=930b140c
DTITLE=123 MIN - Mom
DYEAR=2005
DGENRE=Rock
TTITLE0=Get closer
TTITLE1=In the web
TTITLE2=Heading for the sea
TTITLE3=A simple man
TTITLE4=Doomed by dread
TTITLE5=Mom
TTITLE6=Super-suckers unite
TTITLE7=Call my name
TTITLE8=Cold
TTITLE9=More than a friend
TTITLE10=Stop confusing me
TTITLE11=I lie
EXTD=YEAR: 2005
EXTT0=
EXTT1=
EXTT2=
EXTT3=
EXTT4=
EXTT5=
EXTT6=
EXTT7=
EXTT8=
EXTT9=
EXTT10=
EXTT11=
PLAYORDER=
